<svg width="75" height="13" viewBox="0 0 75 13" fill="none" xmlns="http://www.w3.org/2000/svg">
<g clip-path="url(#clip0_1559_10264)">
<g opacity="0.78">
<path d="M68.888 0.968863C65.767 0.968863 63.2369 3.49893 63.2369 6.61993C63.2369 9.74093 65.767 12.271 68.888 12.271C72.009 12.271 74.5391 9.74093 74.5391 6.61993C74.5391 3.49893 72.009 0.968863 68.888 0.968863Z" stroke="white" stroke-width="0.334878"/>
<path d="M68.4038 5.17725L69.6151 6.35606L68.4038 7.62769" stroke="white" stroke-width="0.334878"/>
</g>
</g>
<g clip-path="url(#clip1_1559_10264)">
<g opacity="0.78">
<path d="M6.24482 12.2709C9.36582 12.2709 11.8959 9.74082 11.8959 6.61982C11.8959 3.49882 9.36582 0.96875 6.24482 0.96875C3.12382 0.96875 0.59375 3.49882 0.59375 6.61982C0.59375 9.74082 3.12382 12.2709 6.24482 12.2709Z" stroke="white" stroke-width="0.334878"/>
<path d="M6.729 8.0625L5.5177 6.88369L6.729 5.61206" stroke="white" stroke-width="0.334878"/>
</g>
</g>
<defs>
<clipPath id="clip0_1559_10264">
<rect width="11.5847" height="11.5847" fill="white" transform="matrix(-1 0 0 -1 74.6807 12.4122)"/>
</clipPath>
<clipPath id="clip1_1559_10264">
<rect width="11.5847" height="11.5847" fill="white" transform="translate(0.237793 0.827515)"/>
</clipPath>
</defs>
</svg>
