<svg width="333" height="410" viewBox="0 0 333 410" fill="none" xmlns="http://www.w3.org/2000/svg">
<g filter="url(#filter0_f_1586_96958)">
<path d="M100.58 293.606C59.356 196.913 75.5434 256.699 109.429 147.811C107.487 128.677 117.307 109.501 118.278 88.8888C119.249 68.2768 138.89 75.1835 193.82 95.7955C248.749 116.408 204.611 124.285 239.468 167.991C274.325 211.698 244.864 276.447 242.921 278.821C240.979 281.196 141.804 390.299 100.58 293.606Z" fill="url(#paint0_linear_1586_96958)" fill-opacity="0.5"/>
<path d="M100.58 293.606C59.356 196.913 75.5434 256.699 109.429 147.811C107.487 128.677 117.307 109.501 118.278 88.8888C119.249 68.2768 138.89 75.1835 193.82 95.7955C248.749 116.408 204.611 124.285 239.468 167.991C274.325 211.698 244.864 276.447 242.921 278.821C240.979 281.196 141.804 390.299 100.58 293.606Z" stroke="black" stroke-width="0.215833"/>
</g>
<defs>
<filter id="filter0_f_1586_96958" x="0.212517" y="0.591911" width="332.049" height="408.788" filterUnits="userSpaceOnUse" color-interpolation-filters="sRGB">
<feFlood flood-opacity="0" result="BackgroundImageFix"/>
<feBlend mode="normal" in="SourceGraphic" in2="BackgroundImageFix" result="shape"/>
<feGaussianBlur stdDeviation="37.8786" result="effect1_foregroundBlur_1586_96958"/>
</filter>
<linearGradient id="paint0_linear_1586_96958" x1="166.237" y1="76.457" x2="166.237" y2="333.515" gradientUnits="userSpaceOnUse">
<stop stop-color="white"/>
<stop offset="1" stop-color="#D9D2BC"/>
</linearGradient>
</defs>
</svg>
