<svg width="333" height="409" viewBox="0 0 333 409" fill="none" xmlns="http://www.w3.org/2000/svg">
<g filter="url(#filter0_f_1586_96991)">
<path d="M101.173 293.044C59.9493 196.352 76.1367 256.137 110.022 147.25C108.08 128.115 117.9 108.939 118.871 88.3273C119.843 67.7153 139.483 74.622 194.413 95.234C249.342 115.846 205.204 123.724 240.061 167.43C274.918 211.136 245.457 275.886 243.515 278.26C241.572 280.634 142.397 389.737 101.173 293.044Z" fill="url(#paint0_linear_1586_96991)" fill-opacity="0.5"/>
<path d="M101.173 293.044C59.9493 196.352 76.1367 256.137 110.022 147.25C108.08 128.115 117.9 108.939 118.871 88.3273C119.843 67.7153 139.483 74.622 194.413 95.234C249.342 115.846 205.204 123.724 240.061 167.43C274.918 211.136 245.457 275.886 243.515 278.26C241.572 280.634 142.397 389.737 101.173 293.044Z" stroke="black" stroke-width="0.215833"/>
</g>
<defs>
<filter id="filter0_f_1586_96991" x="0.805779" y="0.0303879" width="332.049" height="408.788" filterUnits="userSpaceOnUse" color-interpolation-filters="sRGB">
<feFlood flood-opacity="0" result="BackgroundImageFix"/>
<feBlend mode="normal" in="SourceGraphic" in2="BackgroundImageFix" result="shape"/>
<feGaussianBlur stdDeviation="37.8786" result="effect1_foregroundBlur_1586_96991"/>
</filter>
<linearGradient id="paint0_linear_1586_96991" x1="166.83" y1="75.8955" x2="166.83" y2="332.953" gradientUnits="userSpaceOnUse">
<stop stop-color="#BBD432"/>
<stop offset="1" stop-color="#F0C024"/>
</linearGradient>
</defs>
</svg>
